<svg width="113" height="24" viewBox="0 0 113 24" fill="none" xmlns="http://www.w3.org/2000/svg">
<path d="M6 11H10" stroke="#B71C1C" stroke-width="2" stroke-linecap="round" stroke-linejoin="round"/>
<path d="M8 9V13" stroke="#B71C1C" stroke-width="2" stroke-linecap="round" stroke-linejoin="round"/>
<path d="M15 12H15.01" stroke="#B71C1C" stroke-width="2" stroke-linecap="round" stroke-linejoin="round"/>
<path d="M18 10H18.01" stroke="#B71C1C" stroke-width="2" stroke-linecap="round" stroke-linejoin="round"/>
<path d="M17.32 5H6.68C5.69028 5.00023 4.73579 5.36738 4.00103 6.03046C3.26628 6.69355 2.80345 7.60549 2.702 8.59C2.696 8.642 2.692 8.691 2.685 8.742C2.604 9.416 2 14.456 2 16C2 16.7956 2.31607 17.5587 2.87868 18.1213C3.44129 18.6839 4.20435 19 5 19C6 19 6.5 18.5 7 18L8.414 16.586C8.78899 16.2109 9.29761 16.0001 9.828 16H14.172C14.7024 16.0001 15.211 16.2109 15.586 16.586L17 18C17.5 18.5 18 19 19 19C19.7956 19 20.5587 18.6839 21.1213 18.1213C21.6839 17.5587 22 16.7956 22 16C22 14.455 21.396 9.416 21.315 8.742C21.308 8.692 21.304 8.642 21.298 8.591C21.1968 7.60631 20.7341 6.69413 19.9993 6.03083C19.2645 5.36754 18.3099 5.00026 17.32 5Z" stroke="#B71C1C" stroke-width="2" stroke-linecap="round" stroke-linejoin="round"/>
<path d="M27.7576 5.8H29.5176V10.52L31.7576 5.8H33.5176L31.4216 9.912L33.5496 17H31.7096L30.2216 12.008L29.5176 13.432V17H27.7576V5.8ZM36.6766 17.16C35.8126 17.16 35.1512 16.9147 34.6926 16.424C34.2339 15.9333 34.0046 15.24 34.0046 14.344V8.456C34.0046 7.56 34.2339 6.86667 34.6926 6.376C35.1512 5.88533 35.8126 5.64 36.6766 5.64C37.5406 5.64 38.2019 5.88533 38.6606 6.376C39.1192 6.86667 39.3486 7.56 39.3486 8.456V14.344C39.3486 15.24 39.1192 15.9333 38.6606 16.424C38.2019 16.9147 37.5406 17.16 36.6766 17.16ZM36.6766 15.56C37.2846 15.56 37.5886 15.192 37.5886 14.456V8.344C37.5886 7.608 37.2846 7.24 36.6766 7.24C36.0686 7.24 35.7646 7.608 35.7646 8.344V14.456C35.7646 15.192 36.0686 15.56 36.6766 15.56ZM42.8268 17.16C41.9735 17.16 41.3281 16.92 40.8908 16.44C40.4535 15.9493 40.2348 15.2507 40.2348 14.344V13.704H41.8988V14.472C41.8988 15.1973 42.2028 15.56 42.8108 15.56C43.1095 15.56 43.3335 15.4747 43.4828 15.304C43.6428 15.1227 43.7228 14.8347 43.7228 14.44C43.7228 13.9707 43.6161 13.56 43.4028 13.208C43.1895 12.8453 42.7948 12.4133 42.2188 11.912C41.4935 11.272 40.9868 10.696 40.6988 10.184C40.4108 9.66133 40.2668 9.07467 40.2668 8.424C40.2668 7.53867 40.4908 6.856 40.9388 6.376C41.3868 5.88533 42.0375 5.64 42.8908 5.64C43.7335 5.64 44.3681 5.88533 44.7948 6.376C45.2321 6.856 45.4508 7.54933 45.4508 8.456V8.92H43.7868V8.344C43.7868 7.96 43.7121 7.68267 43.5628 7.512C43.4135 7.33067 43.1948 7.24 42.9068 7.24C42.3201 7.24 42.0268 7.59733 42.0268 8.312C42.0268 8.71733 42.1335 9.096 42.3468 9.448C42.5708 9.8 42.9708 10.2267 43.5468 10.728C44.2828 11.368 44.7895 11.9493 45.0668 12.472C45.3441 12.9947 45.4828 13.608 45.4828 14.312C45.4828 15.2293 45.2535 15.9333 44.7948 16.424C44.3468 16.9147 43.6908 17.16 42.8268 17.16ZM47.8679 7.4H46.0279V5.8H51.4679V7.4H49.6279V17H47.8679V7.4ZM53.9986 12.232L51.8706 5.8H53.7426L54.9426 9.912H54.9746L56.1746 5.8H57.8866L55.7586 12.232V17H53.9986V12.232ZM58.6794 5.8H61.2874C62.1941 5.8 62.8554 6.01333 63.2714 6.44C63.6874 6.856 63.8954 7.50133 63.8954 8.376V9.064C63.8954 10.2267 63.5114 10.9627 62.7434 11.272V11.304C63.1701 11.432 63.4688 11.6933 63.6394 12.088C63.8208 12.4827 63.9114 13.0107 63.9114 13.672V15.64C63.9114 15.96 63.9221 16.2213 63.9434 16.424C63.9648 16.616 64.0181 16.808 64.1034 17H62.3114C62.2474 16.8187 62.2048 16.648 62.1834 16.488C62.1621 16.328 62.1514 16.04 62.1514 15.624V13.576C62.1514 13.064 62.0661 12.7067 61.8954 12.504C61.7354 12.3013 61.4528 12.2 61.0474 12.2H60.4394V17H58.6794V5.8ZM61.0794 10.6C61.4314 10.6 61.6928 10.5093 61.8634 10.328C62.0448 10.1467 62.1354 9.84267 62.1354 9.416V8.552C62.1354 8.14667 62.0608 7.85333 61.9114 7.672C61.7728 7.49067 61.5488 7.4 61.2394 7.4H60.4394V10.6H61.0794ZM65.1326 5.8H66.8926V10.52L69.1326 5.8H70.8926L68.7966 9.912L70.9246 17H69.0846L67.5966 12.008L66.8926 13.432V17H65.1326V5.8ZM74.0516 17.16C73.1876 17.16 72.5262 16.9147 72.0676 16.424C71.6089 15.9333 71.3796 15.24 71.3796 14.344V8.456C71.3796 7.56 71.6089 6.86667 72.0676 6.376C72.5262 5.88533 73.1876 5.64 74.0516 5.64C74.9156 5.64 75.5769 5.88533 76.0356 6.376C76.4942 6.86667 76.7236 7.56 76.7236 8.456V14.344C76.7236 15.24 76.4942 15.9333 76.0356 16.424C75.5769 16.9147 74.9156 17.16 74.0516 17.16ZM74.0516 15.56C74.6596 15.56 74.9636 15.192 74.9636 14.456V8.344C74.9636 7.608 74.6596 7.24 74.0516 7.24C73.4436 7.24 73.1396 7.608 73.1396 8.344V14.456C73.1396 15.192 73.4436 15.56 74.0516 15.56ZM82.9723 17.16C82.119 17.16 81.4683 16.92 81.0203 16.44C80.5723 15.9493 80.3483 15.2507 80.3483 14.344V8.456C80.3483 7.54933 80.5723 6.856 81.0203 6.376C81.4683 5.88533 82.119 5.64 82.9723 5.64C83.8256 5.64 84.4763 5.88533 84.9243 6.376C85.3723 6.856 85.5963 7.54933 85.5963 8.456V9.416H83.9323V8.344C83.9323 7.608 83.6283 7.24 83.0203 7.24C82.4123 7.24 82.1083 7.608 82.1083 8.344V14.472C82.1083 15.1973 82.4123 15.56 83.0203 15.56C83.6283 15.56 83.9323 15.1973 83.9323 14.472V12.28H83.0523V10.68H85.5963V14.344C85.5963 15.2507 85.3723 15.9493 84.9243 16.44C84.4763 16.92 83.8256 17.16 82.9723 17.16ZM88.0863 5.8H90.4703L92.2943 17H90.5343L90.2143 14.776V14.808H88.2143L87.8943 17H86.2623L88.0863 5.8ZM90.0063 13.288L89.2223 7.752H89.1903L88.4223 13.288H90.0063ZM93.1482 5.8H95.6602L96.7802 13.816H96.8122L97.9322 5.8H100.444V17H98.7802V8.52H98.7482L97.4682 17H95.9962L94.7162 8.52H94.6842V17H93.1482V5.8ZM101.758 5.8H106.558V7.4H103.518V10.36H105.934V11.96H103.518V15.4H106.558V17H101.758V5.8ZM109.889 17.16C109.036 17.16 108.391 16.92 107.953 16.44C107.516 15.9493 107.297 15.2507 107.297 14.344V13.704H108.961V14.472C108.961 15.1973 109.265 15.56 109.873 15.56C110.172 15.56 110.396 15.4747 110.545 15.304C110.705 15.1227 110.785 14.8347 110.785 14.44C110.785 13.9707 110.679 13.56 110.465 13.208C110.252 12.8453 109.857 12.4133 109.281 11.912C108.556 11.272 108.049 10.696 107.761 10.184C107.473 9.66133 107.329 9.07467 107.329 8.424C107.329 7.53867 107.553 6.856 108.001 6.376C108.449 5.88533 109.1 5.64 109.953 5.64C110.796 5.64 111.431 5.88533 111.857 6.376C112.295 6.856 112.513 7.54933 112.513 8.456V8.92H110.849V8.344C110.849 7.96 110.775 7.68267 110.625 7.512C110.476 7.33067 110.257 7.24 109.969 7.24C109.383 7.24 109.089 7.59733 109.089 8.312C109.089 8.71733 109.196 9.096 109.409 9.448C109.633 9.8 110.033 10.2267 110.609 10.728C111.345 11.368 111.852 11.9493 112.129 12.472C112.407 12.9947 112.545 13.608 112.545 14.312C112.545 15.2293 112.316 15.9333 111.857 16.424C111.409 16.9147 110.753 17.16 109.889 17.16Z" fill="white"/>
</svg>
